<mxfile host="app.diagrams.net" modified="2022-05-17T03:28:22.612Z" agent="5.0 (Macintosh; Intel Mac OS X 10_15_7) AppleWebKit/537.36 (KHTML, like Gecko) Chrome/101.0.4951.54 Safari/537.36" etag="KVyhAVFzAy9ORnZtsXu2" version="16.2.2" type="github">
  <diagram name="Page-1" id="dd472eb7-4b8b-5cd9-a60b-b15522922e76">
    <mxGraphModel dx="1038" dy="1497" grid="1" gridSize="10" guides="1" tooltips="1" connect="1" arrows="1" fold="1" page="1" pageScale="1" pageWidth="1100" pageHeight="850" background="none" math="0" shadow="0">
      <root>
        <mxCell id="0" />
        <mxCell id="1" parent="0" />
        <mxCell id="374e34682ed331ee-1" value="仓库" style="ellipse;whiteSpace=wrap;html=1;rounded=0;shadow=0;dashed=0;comic=0;fontFamily=Verdana;fontSize=22;fillColor=#f0a30a;strokeColor=#BD7000;fontColor=#000000;" parent="1" vertex="1">
          <mxGeometry x="330" y="180" width="400" height="400" as="geometry" />
        </mxCell>
        <mxCell id="45236fa5f4b8e91a-1" value="采购" style="ellipse;whiteSpace=wrap;html=1;rounded=0;shadow=0;dashed=0;comic=0;fontFamily=Verdana;fontSize=22;fontColor=#ffffff;fillColor=#1ba1e2;strokeColor=#006EAF;" parent="1" vertex="1">
          <mxGeometry x="450" y="40" width="160" height="160" as="geometry" />
        </mxCell>
        <mxCell id="45236fa5f4b8e91a-2" value="电解" style="ellipse;whiteSpace=wrap;html=1;rounded=0;shadow=0;dashed=0;comic=0;fontFamily=Verdana;fontSize=22;fontColor=#ffffff;fillColor=#1ba1e2;strokeColor=#006EAF;" parent="1" vertex="1">
          <mxGeometry x="450" y="560" width="160" height="160" as="geometry" />
        </mxCell>
        <mxCell id="45236fa5f4b8e91a-3" value="精制" style="ellipse;whiteSpace=wrap;html=1;rounded=0;shadow=0;dashed=0;comic=0;fontFamily=Verdana;fontSize=22;fontColor=#ffffff;fillColor=#1ba1e2;strokeColor=#006EAF;" parent="1" vertex="1">
          <mxGeometry x="710" y="300" width="160" height="160" as="geometry" />
        </mxCell>
        <mxCell id="45236fa5f4b8e91a-4" value="精整" style="ellipse;whiteSpace=wrap;html=1;rounded=0;shadow=0;dashed=0;comic=0;fontFamily=Verdana;fontSize=22;fontColor=#ffffff;fillColor=#1ba1e2;strokeColor=#006EAF;" parent="1" vertex="1">
          <mxGeometry x="190" y="300" width="160" height="160" as="geometry" />
        </mxCell>
        <mxCell id="45236fa5f4b8e91a-5" value="销售" style="ellipse;whiteSpace=wrap;html=1;rounded=0;shadow=0;dashed=0;comic=0;fontFamily=Verdana;fontSize=22;fontColor=#ffffff;fillColor=#1ba1e2;strokeColor=#006EAF;" parent="1" vertex="1">
          <mxGeometry x="280" y="130" width="160" height="160" as="geometry" />
        </mxCell>
        <mxCell id="45236fa5f4b8e91a-6" value="氯化" style="ellipse;whiteSpace=wrap;html=1;rounded=0;shadow=0;dashed=0;comic=0;fontFamily=Verdana;fontSize=22;fontColor=#ffffff;fillColor=#1ba1e2;strokeColor=#006EAF;" parent="1" vertex="1">
          <mxGeometry x="620" y="130" width="160" height="160" as="geometry" />
        </mxCell>
        <mxCell id="45236fa5f4b8e91a-7" value="综合" style="ellipse;whiteSpace=wrap;html=1;rounded=0;shadow=0;dashed=0;comic=0;fontFamily=Verdana;fontSize=22;fontColor=#ffffff;fillColor=#1ba1e2;strokeColor=#006EAF;" parent="1" vertex="1">
          <mxGeometry x="620" y="470" width="160" height="160" as="geometry" />
        </mxCell>
        <mxCell id="45236fa5f4b8e91a-8" value="还蒸" style="ellipse;whiteSpace=wrap;html=1;rounded=0;shadow=0;dashed=0;comic=0;fontFamily=Verdana;fontSize=22;fontColor=#ffffff;fillColor=#1ba1e2;strokeColor=#006EAF;" parent="1" vertex="1">
          <mxGeometry x="280" y="470" width="160" height="160" as="geometry" />
        </mxCell>
        <mxCell id="nypSkxeh19CnlEw6hLjK-6" value="原&lt;br&gt;料" style="shape=singleArrow;direction=south;whiteSpace=wrap;html=1;fillColor=#60a917;strokeColor=#2D7600;fontColor=#ffffff;" vertex="1" parent="1">
          <mxGeometry x="490" y="150" width="40" height="90" as="geometry" />
        </mxCell>
        <mxCell id="nypSkxeh19CnlEw6hLjK-7" value="备&lt;br&gt;品&lt;br&gt;备&lt;br&gt;件" style="shape=singleArrow;direction=south;whiteSpace=wrap;html=1;fillColor=#60a917;strokeColor=#2D7600;fontColor=#ffffff;" vertex="1" parent="1">
          <mxGeometry x="535" y="150" width="45" height="90" as="geometry" />
        </mxCell>
        <mxCell id="nypSkxeh19CnlEw6hLjK-11" value="海&lt;br&gt;绵&lt;br&gt;钛" style="shape=singleArrow;direction=north;whiteSpace=wrap;html=1;fillColor=#fa6800;rotation=-45;strokeColor=#C73500;fontColor=#000000;opacity=70;" vertex="1" parent="1">
          <mxGeometry x="370" y="245" width="42.5" height="90" as="geometry" />
        </mxCell>
        <mxCell id="nypSkxeh19CnlEw6hLjK-13" value="&lt;font style=&quot;font-size: 10px&quot;&gt;成&lt;br&gt;品&lt;br&gt;钛&lt;br&gt;坨&lt;/font&gt;" style="shape=singleArrow;direction=north;whiteSpace=wrap;html=1;fillColor=#60a917;strokeColor=#2D7600;fontColor=#ffffff;rotation=-35;" vertex="1" parent="1">
          <mxGeometry x="298.1" y="403.99" width="40.93" height="100" as="geometry" />
        </mxCell>
        <mxCell id="nypSkxeh19CnlEw6hLjK-14" value="石&lt;br&gt;油&lt;br&gt;焦" style="shape=singleArrow;direction=north;whiteSpace=wrap;html=1;fillColor=#fa6800;rotation=60;strokeColor=#C73500;fontColor=#000000;opacity=70;" vertex="1" parent="1">
          <mxGeometry x="620" y="200" width="45" height="90" as="geometry" />
        </mxCell>
        <mxCell id="nypSkxeh19CnlEw6hLjK-17" value="液&lt;br&gt;镁" style="shape=singleArrow;direction=north;whiteSpace=wrap;html=1;fillColor=#60a917;strokeColor=#2D7600;fontColor=#ffffff;rotation=0;" vertex="1" parent="1">
          <mxGeometry x="480" y="490" width="30" height="100" as="geometry" />
        </mxCell>
        <mxCell id="nypSkxeh19CnlEw6hLjK-18" value="氯&lt;br&gt;气" style="shape=singleArrow;direction=north;whiteSpace=wrap;html=1;fillColor=#60a917;strokeColor=#2D7600;fontColor=#ffffff;rotation=0;" vertex="1" parent="1">
          <mxGeometry x="510" y="490" width="30" height="100" as="geometry" />
        </mxCell>
        <mxCell id="nypSkxeh19CnlEw6hLjK-20" value="海绵钛" style="shape=singleArrow;whiteSpace=wrap;html=1;fillColor=#60a917;opacity=70;fontColor=#ffffff;strokeColor=#2D7600;" vertex="1" parent="1">
          <mxGeometry x="320" y="350" width="100" height="60" as="geometry" />
        </mxCell>
        <mxCell id="nypSkxeh19CnlEw6hLjK-21" value="精四氯化钛" style="shape=singleArrow;direction=west;whiteSpace=wrap;html=1;fillColor=#60a917;opacity=70;fontColor=#ffffff;strokeColor=#2D7600;" vertex="1" parent="1">
          <mxGeometry x="665" y="390" width="100" height="60" as="geometry" />
        </mxCell>
        <mxCell id="nypSkxeh19CnlEw6hLjK-22" value="粗四氯化钛" style="shape=singleArrow;direction=west;whiteSpace=wrap;html=1;fillColor=#60a917;opacity=70;rotation=-25;fontColor=#ffffff;strokeColor=#2D7600;" vertex="1" parent="1">
          <mxGeometry x="600" y="260" width="100" height="60" as="geometry" />
        </mxCell>
        <mxCell id="nypSkxeh19CnlEw6hLjK-24" value="粗四氯化钛" style="shape=singleArrow;direction=west;whiteSpace=wrap;html=1;fillColor=#60a917;opacity=70;rotation=-120;fontColor=#ffffff;strokeColor=#2D7600;" vertex="1" parent="1">
          <mxGeometry x="700" y="260" width="100" height="60" as="geometry" />
        </mxCell>
        <mxCell id="nypSkxeh19CnlEw6hLjK-25" value="氯&lt;br&gt;化&lt;br&gt;镁" style="shape=singleArrow;direction=south;whiteSpace=wrap;html=1;fontSize=10;fillColor=#fa6800;opacity=70;fontColor=#000000;strokeColor=#C73500;" vertex="1" parent="1">
          <mxGeometry x="540" y="500" width="50" height="100" as="geometry" />
        </mxCell>
        <mxCell id="nypSkxeh19CnlEw6hLjK-26" value="精&lt;br&gt;四&lt;br&gt;氯&lt;br&gt;化&lt;br&gt;钛" style="shape=singleArrow;direction=south;whiteSpace=wrap;html=1;fontSize=10;fillColor=#fa6800;opacity=70;fontColor=#000000;strokeColor=#C73500;rotation=45;" vertex="1" parent="1">
          <mxGeometry x="390" y="450" width="39.03" height="100" as="geometry" />
        </mxCell>
        <mxCell id="nypSkxeh19CnlEw6hLjK-27" value="镁&lt;br&gt;锭&lt;br&gt;/&lt;br&gt;液&lt;br&gt;镁" style="shape=singleArrow;direction=south;whiteSpace=wrap;html=1;fontSize=10;fillColor=#fa6800;opacity=70;fontColor=#000000;strokeColor=#C73500;rotation=45;" vertex="1" parent="1">
          <mxGeometry x="421.46" y="476.46" width="40" height="100" as="geometry" />
        </mxCell>
        <mxCell id="nypSkxeh19CnlEw6hLjK-28" value="氯化镁" style="shape=singleArrow;whiteSpace=wrap;html=1;fillColor=#60a917;opacity=70;fontColor=#ffffff;strokeColor=#2D7600;rotation=-45;" vertex="1" parent="1">
          <mxGeometry x="350" y="432.47" width="100" height="43.99" as="geometry" />
        </mxCell>
        <mxCell id="nypSkxeh19CnlEw6hLjK-30" value="客户" style="ellipse;whiteSpace=wrap;html=1;rounded=0;shadow=0;dashed=0;comic=0;fontFamily=Verdana;fontSize=22;fontColor=#000000;fillColor=#fa6800;strokeColor=#C73500;" vertex="1" parent="1">
          <mxGeometry x="117.5" y="-10" width="160" height="160" as="geometry" />
        </mxCell>
        <mxCell id="nypSkxeh19CnlEw6hLjK-31" value="供应商" style="ellipse;whiteSpace=wrap;html=1;rounded=0;shadow=0;dashed=0;comic=0;fontFamily=Verdana;fontSize=22;fillColor=#d5e8d4;strokeColor=#82b366;gradientColor=#97d077;" vertex="1" parent="1">
          <mxGeometry x="455" y="-160" width="160" height="160" as="geometry" />
        </mxCell>
        <mxCell id="nypSkxeh19CnlEw6hLjK-32" value="高&lt;br&gt;钛&lt;br&gt;渣" style="shape=singleArrow;direction=north;whiteSpace=wrap;html=1;fillColor=#fa6800;rotation=60;strokeColor=#C73500;fontColor=#000000;opacity=70;" vertex="1" parent="1">
          <mxGeometry x="612.5" y="175.67" width="42.5" height="90" as="geometry" />
        </mxCell>
        <mxCell id="nypSkxeh19CnlEw6hLjK-33" value="副&lt;br&gt;产&lt;br&gt;物" style="shape=singleArrow;direction=north;whiteSpace=wrap;html=1;fillColor=#fa6800;rotation=-45;strokeColor=#C73500;fontColor=#000000;opacity=70;" vertex="1" parent="1">
          <mxGeometry x="407.5" y="210" width="42.5" height="90" as="geometry" />
        </mxCell>
        <mxCell id="nypSkxeh19CnlEw6hLjK-35" value="销&lt;br&gt;售" style="shape=singleArrow;direction=north;whiteSpace=wrap;html=1;fillColor=#fa6800;rotation=-45;strokeColor=#C73500;fontColor=#000000;opacity=70;" vertex="1" parent="1">
          <mxGeometry x="247.5" y="110" width="82.5" height="90" as="geometry" />
        </mxCell>
        <mxCell id="nypSkxeh19CnlEw6hLjK-36" value="供&lt;br&gt;应" style="shape=singleArrow;direction=south;whiteSpace=wrap;html=1;fillColor=#60a917;strokeColor=#2D7600;fontColor=#ffffff;" vertex="1" parent="1">
          <mxGeometry x="490" y="-20" width="90" height="90" as="geometry" />
        </mxCell>
      </root>
    </mxGraphModel>
  </diagram>
</mxfile>
